<?xml version="1.0" standalone="no"?>
<!DOCTYPE svg PUBLIC "-//W3C//DTD SVG 20010904//EN"
 "http://www.w3.org/TR/2001/REC-SVG-20010904/DTD/svg10.dtd">
<svg version="1.0" xmlns="http://www.w3.org/2000/svg"
 width="307.000000pt" height="307.000000pt" viewBox="0 0 307.000000 307.000000"
 preserveAspectRatio="xMidYMid meet">
<metadata>
Created by potrace 1.14, written by Peter Selinger 2001-2017
</metadata>
<g transform="translate(0.000000,307.000000) scale(0.100000,-0.100000)"
fill="#000000" stroke="none">
<path d="M1955 2027 c-127 -47 -275 -138 -575 -352 -205 -147 -369 -255 -436
-289 -28 -14 -90 -35 -137 -46 l-86 -21 -133 45 c-127 43 -344 97 -384 95 -11
0 35 -15 101 -34 147 -41 355 -112 332 -114 -66 -6 -227 -36 -277 -53 -68 -22
-241 -105 -275 -132 -11 -9 21 4 70 28 128 63 231 95 354 111 194 25 173 30
387 -78 215 -109 357 -160 501 -182 291 -44 518 8 864 200 l116 65 112 0 c126
0 210 -15 367 -65 60 -19 110 -32 112 -31 5 6 -154 65 -248 92 -47 14 -125 28
-175 32 l-90 8 215 72 c118 39 208 71 200 72 -27 0 -282 -70 -405 -112 l-120
-40 -127 4 c-115 4 -132 7 -184 34 -32 16 -67 41 -77 56 -40 55 -29 175 25
282 28 54 110 139 172 177 66 42 106 79 106 99 0 26 -29 59 -70 80 -54 28
-155 26 -235 -3z m213 -47 c17 -11 32 -23 32 -27 0 -5 -35 -30 -76 -58 -128
-84 -197 -182 -230 -322 -35 -154 22 -255 166 -293 24 -7 83 -15 130 -19 l85
-6 -125 -62 c-69 -35 -166 -76 -215 -93 -236 -80 -498 -80 -740 1 -90 30 -414
178 -415 190 0 4 18 9 41 13 114 18 225 81 586 327 361 248 450 302 573 345
81 29 144 30 188 4z"/>
<path d="M148 1463 c6 -2 18 -2 25 0 6 3 1 5 -13 5 -14 0 -19 -2 -12 -5z"/>
<path d="M2898 1453 c7 -3 16 -2 19 1 4 3 -2 6 -13 5 -11 0 -14 -3 -6 -6z"/>
<path d="M2990 1160 c8 -5 20 -10 25 -10 6 0 3 5 -5 10 -8 5 -19 10 -25 10 -5
0 -3 -5 5 -10z"/>
</g>
</svg>
